<?xml version="1.0" ?><!DOCTYPE svg  PUBLIC '-//W3C//DTD SVG 1.1//EN'  'http://www.w3.org/Graphics/SVG/1.1/DTD/svg11.dtd'><!-- Uploaded to: SVG Repo, www.svgrepo.com, Generator: SVG Repo Mixer Tools -->
<svg fill="#000000" width="800px" height="800px" viewBox="0 0 512 512" enable-background="new 0 0 512 512" id="flight_x5F_ticket" version="1.1" xml:space="preserve" xmlns="http://www.w3.org/2000/svg" xmlns:xlink="http://www.w3.org/1999/xlink"><path d="M197.794,299.66v23.572h-15.222V299.66c-10.177-3.227-17.554-12.743-17.554-23.988H43.063v70.32  c13.898,0,25.165,11.267,25.165,25.164c0,13.898-11.267,25.166-25.165,25.166v70.318h121.955c0-11.244,7.377-20.76,17.554-23.986  v-21.695h15.222v21.695c10.177,3.226,17.555,12.742,17.555,23.986h253.588V275.672H215.349  C215.349,286.918,207.971,296.434,197.794,299.66z M139.155,414.448h-32.657v-11.567h32.657V414.448z M139.155,382.938h-32.657  V371.37h32.657V382.938z M139.155,351.425h-32.657v-11.567h32.657V351.425z M197.794,384.644h-15.222V357.67h15.222V384.644z   M338.32,445.959h-13.756v-11.566h13.756V445.959z M373.457,445.959H359.7v-11.566h13.757V445.959z M408.592,445.959h-13.755  v-11.566h13.755V445.959z M291.597,308.346h116.995v11.568H291.597V308.346z M240.536,339.857h168.056v11.567H240.536V339.857z   M240.536,371.37h168.056v11.567H240.536V371.37z M240.536,402.881h168.056v11.567H240.536V402.881z"/><path d="M236.945,227.711l16.144,32.288c1.199,2.399,4.623,2.399,5.822,0l16.144-32.288c41.758-8.78,73.113-45.815,73.113-90.184  c0-53.101-44.906-95.714-98.814-91.935c-46.116,3.233-83.12,41.076-85.406,87.249C161.649,179.268,193.726,218.624,236.945,227.711z   M264.041,108.033l38.786,4.253c1.726-0.079,3.424,0.442,4.807,1.475l4.753,3.551c1.281,0.958,0.851,2.977-0.71,3.328l-32.17,1.512  c-2.468,0.116-4.883-0.74-6.729-2.383l-9.996-8.905C261.6,109.811,262.467,107.86,264.041,108.033z M203.1,93.281  c2.594-0.791,5.206-1.121,7.701-1.156c7.842-0.112,15.417,2.865,21.394,7.942l61.346,52.111l13.237-2.526  c3.456-0.66,7.005,0.545,9.345,3.173l1.275,1.432c1.044,1.173,0.801,3-0.515,3.859l-11.578,7.559  c-7.087,4.626-16.292,4.408-23.152-0.548l-30.058-21.717l-0.356,44.326c-0.016,1.918-2.274,2.936-3.721,1.676l-5.367-4.671  c-1.562-1.359-2.604-3.219-2.948-5.261l-8.639-51.264l-30.149-21.783c-0.762-0.551-1.426-1.241-1.918-2.042  c-0.039-0.063-0.076-0.125-0.113-0.187C196.383,100.011,198.43,94.705,203.1,93.281z"/></svg>